<svg width="337.5" height="65.332" viewBox="0 0 337.5 65.332" xmlns="http://www.w3.org/2000/svg"><g id="svgGroup" stroke-linecap="round" fill-rule="evenodd" font-size="9pt" stroke="#000" stroke-width="0.25mm" fill="#000" style="stroke:#000;stroke-width:0.25mm;fill:#000"><path d="M 101.953 49.512 L 101.953 20.508 Q 101.313 20.741 100.933 21.06 A 1.635 1.635 0 0 0 100.537 21.533 A 11.129 11.129 0 0 0 100.274 22.058 Q 100.161 22.296 100.044 22.568 A 23.248 23.248 0 0 0 99.805 23.145 A 7.137 7.137 0 0 0 99.701 23.365 Q 99.482 23.843 99.028 24.942 A 183.115 183.115 0 0 0 99.024 24.951 Q 98.438 26.367 97.656 28.321 A 151.473 151.473 0 0 1 96.838 30.323 A 177.723 177.723 0 0 1 95.947 32.422 A 177.723 177.723 0 0 0 95.056 34.522 A 151.473 151.473 0 0 0 94.238 36.524 L 92.871 39.942 L 92.09 41.895 A 59.676 59.676 0 0 1 91.529 43.135 Q 91.022 44.226 90.381 45.508 A 24.457 24.457 0 0 1 87.94 49.414 A 16.434 16.434 0 0 1 85.778 51.756 A 14.429 14.429 0 0 1 84.815 52.539 A 6.164 6.164 0 0 1 81.055 53.809 A 6.721 6.721 0 0 1 78.405 53.302 Q 76.962 52.69 75.896 51.34 A 7.824 7.824 0 0 1 75.879 51.319 A 14.361 14.361 0 0 1 74.169 48.487 Q 73.417 46.866 72.901 44.873 Q 71.875 40.918 71.484 35.987 A 357.132 357.132 0 0 1 70.85 26.367 A 505.807 505.807 0 0 0 70.593 21.826 A 414.814 414.814 0 0 0 70.313 17.578 A 38.957 38.957 0 0 0 70.072 15.187 Q 69.759 12.846 69.19 11.268 A 11.015 11.015 0 0 0 69.141 11.133 L 68.848 11.133 L 68.652 11.133 L 68.555 11.133 L 68.457 11.133 L 68.262 11.133 A 5.182 5.182 0 0 0 67.294 11.893 Q 66.857 12.323 66.455 12.891 Q 65.625 14.063 64.942 15.381 Q 64.258 16.699 63.818 17.871 Q 63.456 18.837 63.26 19.471 A 12.175 12.175 0 0 0 63.184 19.727 L 52.051 55.469 Q 51.976 55.693 51.844 56.032 A 26.264 26.264 0 0 1 51.758 56.25 A 3.806 3.806 0 0 1 51.242 57.15 A 4.237 4.237 0 0 1 51.221 57.178 A 3.327 3.327 0 0 1 50.453 57.901 A 3.189 3.189 0 0 1 50.44 57.91 A 1.083 1.083 0 0 1 50.172 58.042 Q 49.905 58.128 49.621 58.046 A 1.185 1.185 0 0 1 49.512 58.008 A 0.528 0.528 0 0 1 49.314 57.965 Q 49.082 57.871 48.779 57.569 A 8.084 8.084 0 0 1 48.048 56.725 A 8.972 8.972 0 0 1 47.949 56.592 A 10.153 10.153 0 0 1 47.418 55.786 A 8.989 8.989 0 0 1 47.266 55.518 A 11.283 11.283 0 0 1 47.131 55.265 Q 46.948 54.907 46.875 54.688 A 157.188 157.188 0 0 1 45.215 34.571 A 530.808 530.808 0 0 1 45.117 24.463 A 485.981 485.981 0 0 1 45.215 14.649 L 44.776 13.77 A 10.664 10.664 0 0 1 44.659 13.531 Q 44.492 13.174 44.449 12.994 A 0.458 0.458 0 0 1 44.434 12.891 A 2.38 2.38 0 0 1 44.573 12.106 Q 44.681 11.795 44.873 11.475 A 8.304 8.304 0 0 1 45.679 10.36 A 9.543 9.543 0 0 1 45.947 10.059 A 6.514 6.514 0 0 1 46.91 9.202 A 5.756 5.756 0 0 1 47.315 8.936 A 3.927 3.927 0 0 1 47.79 8.69 Q 48.042 8.583 48.274 8.535 A 1.776 1.776 0 0 1 48.633 8.496 Q 49.21 8.496 49.583 8.684 A 1.141 1.141 0 0 1 50 9.033 A 1.825 1.825 0 0 1 50.264 9.576 Q 50.339 9.822 50.37 10.118 A 4.173 4.173 0 0 1 50.391 10.547 A 111.195 111.195 0 0 1 49.902 20.996 A 112.25 112.25 0 0 0 49.414 31.543 L 49.414 33.496 A 62.316 62.316 0 0 0 49.463 35.987 A 65.794 65.794 0 0 1 49.499 37.112 Q 49.511 37.645 49.512 38.121 A 39.466 39.466 0 0 1 49.512 38.184 L 49.512 39.258 L 50.391 42.774 A 0.791 0.791 0 0 1 50.465 42.656 Q 50.554 42.537 50.714 42.389 A 4.094 4.094 0 0 1 50.83 42.285 Q 51.109 42.046 51.226 41.937 A 1.925 1.925 0 0 0 51.27 41.895 Q 51.43 41.574 51.787 40.793 A 144.521 144.521 0 0 0 51.953 40.43 A 189.59 189.59 0 0 0 52.454 39.319 A 227.803 227.803 0 0 0 52.979 38.135 Q 53.516 36.914 54.004 35.791 A 22.546 22.546 0 0 0 54.223 35.271 Q 54.517 34.547 54.59 34.18 Q 54.75 33.779 55.108 32.82 A 244.711 244.711 0 0 0 55.274 32.373 Q 55.762 31.055 56.445 29.151 A 102.644 102.644 0 0 1 57.553 26.212 A 117.241 117.241 0 0 1 57.959 25.196 A 144.409 144.409 0 0 0 58.753 23.194 A 122.034 122.034 0 0 0 59.473 21.289 A 214.924 214.924 0 0 1 59.965 19.966 Q 60.161 19.444 60.343 18.969 A 119.677 119.677 0 0 1 60.693 18.067 A 1050.596 1050.596 0 0 1 60.926 17.474 Q 61.194 16.793 61.345 16.415 A 95.022 95.022 0 0 1 61.426 16.211 A 16.493 16.493 0 0 0 61.649 15.744 Q 61.984 15.015 62.518 13.737 A 141.869 141.869 0 0 0 62.647 13.428 A 28.491 28.491 0 0 1 64.253 10.175 A 32.182 32.182 0 0 1 64.697 9.424 A 24.738 24.738 0 0 1 66.468 6.879 A 21.143 21.143 0 0 1 67.334 5.86 A 6.096 6.096 0 0 1 68.233 5.036 Q 69.238 4.297 70.313 4.297 A 1.976 1.976 0 0 1 71.852 5.032 Q 72.124 5.343 72.349 5.786 A 5.647 5.647 0 0 1 72.559 6.25 A 14.774 14.774 0 0 1 73.076 7.812 Q 73.498 9.344 73.779 11.377 A 67.735 67.735 0 0 1 74.138 14.546 Q 74.289 16.213 74.387 18.069 A 112.646 112.646 0 0 1 74.414 18.604 A 590.769 590.769 0 0 1 74.737 26.417 A 643.648 643.648 0 0 1 74.756 26.953 A 167.599 167.599 0 0 0 75.223 35.049 A 154.424 154.424 0 0 0 75.244 35.303 Q 75.563 39.087 76.18 42.104 A 41.595 41.595 0 0 0 76.27 42.53 Q 76.953 45.703 78.174 47.656 A 4.796 4.796 0 0 0 79.064 48.728 A 3.488 3.488 0 0 0 81.445 49.61 A 1.327 1.327 0 0 0 81.916 49.517 Q 82.287 49.376 82.707 49.023 A 4.745 4.745 0 0 0 82.764 48.975 A 9.825 9.825 0 0 0 83.66 48.086 A 12.127 12.127 0 0 0 84.18 47.461 A 19.462 19.462 0 0 0 85.194 46.033 A 17.336 17.336 0 0 0 85.401 45.703 Q 85.839 44.985 86.05 44.528 A 4.102 4.102 0 0 0 86.133 44.336 Q 86.817 43.067 88.086 40.332 A 980.65 980.65 0 0 1 89.396 37.523 Q 90.09 36.041 90.863 34.4 A 1601.535 1601.535 0 0 1 90.967 34.18 A 909.082 909.082 0 0 0 92.615 30.664 A 1063.189 1063.189 0 0 0 94.336 26.953 A 961.091 961.091 0 0 0 96.045 23.23 A 829.614 829.614 0 0 0 97.656 19.678 A 735.171 735.171 0 0 1 99.057 16.589 Q 99.814 14.929 100.488 13.477 A 336.901 336.901 0 0 0 101.08 12.195 Q 101.902 10.406 102.341 9.381 A 82.372 82.372 0 0 0 102.344 9.375 A 186.357 186.357 0 0 0 102.609 8.734 Q 102.905 8.017 103.292 7.066 A 648.42 648.42 0 0 0 103.662 6.153 A 43.341 43.341 0 0 0 104.223 4.697 Q 104.47 4.017 104.656 3.419 A 19.833 19.833 0 0 0 104.883 2.637 Q 106.055 2.832 107.227 3.321 A 2.11 2.11 0 0 1 107.857 3.714 Q 108.399 4.215 108.399 5.078 Q 108.399 5.255 108.359 5.551 A 8.093 8.093 0 0 1 108.35 5.615 Q 108.301 5.957 108.301 6.055 A 186.297 186.297 0 0 0 106.469 19.732 A 168.511 168.511 0 0 0 106.299 21.631 A 186.376 186.376 0 0 0 105.664 37.207 L 105.664 39.6 A 135.635 135.635 0 0 0 105.676 41.382 A 171.988 171.988 0 0 0 105.713 43.311 A 171.988 171.988 0 0 1 105.75 45.24 A 135.635 135.635 0 0 1 105.762 47.022 L 105.762 49.512 Q 106.25 53.516 108.594 56.836 A 99.542 99.542 0 0 0 112.77 62.348 A 90.524 90.524 0 0 0 113.379 63.086 L 113.379 65.332 A 2.172 2.172 0 0 1 112.731 65.223 Q 112.065 65.014 111.231 64.405 A 13.304 13.304 0 0 1 109.961 63.343 Q 109.326 62.744 108.692 62.012 A 29.171 29.171 0 0 1 107.124 60.028 A 35.785 35.785 0 0 1 106.201 58.692 A 46.092 46.092 0 0 1 104.661 56.187 A 39.003 39.003 0 0 1 104.053 55.078 A 41.009 41.009 0 0 1 103.258 53.495 Q 102.901 52.742 102.619 52.052 A 24.48 24.48 0 0 1 102.539 51.856 A 12.357 12.357 0 0 1 102.256 51.078 Q 102.004 50.3 101.962 49.731 A 2.972 2.972 0 0 1 101.953 49.512 Z M 133.106 35.938 L 133.106 36.035 L 133.106 36.231 A 1.642 1.642 0 0 1 133.025 36.761 Q 132.87 37.217 132.418 37.475 A 1.737 1.737 0 0 1 132.373 37.5 A 5.135 5.135 0 0 1 131.734 37.783 Q 131.183 37.986 130.469 38.135 A 41.318 41.318 0 0 1 128.788 38.448 A 48.493 48.493 0 0 1 127.979 38.574 A 10.416 10.416 0 0 0 125.488 39.258 A 5.232 5.232 0 0 0 124.28 39.953 A 4.5 4.5 0 0 0 123.584 40.625 Q 122.852 41.504 122.852 43.067 A 5.075 5.075 0 0 0 123.333 45.171 Q 123.669 45.914 124.24 46.668 A 11.249 11.249 0 0 0 124.902 47.461 A 20.941 20.941 0 0 0 127.398 49.765 A 28.508 28.508 0 0 0 130.127 51.66 Q 133.301 53.614 137.207 55.323 A 89.25 89.25 0 0 0 142.957 57.611 A 78.281 78.281 0 0 0 144.824 58.252 A 76.322 76.322 0 0 0 148.153 59.268 Q 149.729 59.708 151.158 60.021 A 45.304 45.304 0 0 0 151.563 60.108 A 37.45 37.45 0 0 0 153.023 60.386 Q 154.992 60.717 156.152 60.645 A 1.176 1.176 0 0 0 156.323 60.63 Q 156.596 60.589 157.073 60.435 A 11.981 11.981 0 0 0 157.178 60.401 A 42.189 42.189 0 0 0 158.304 60.007 A 47.37 47.37 0 0 0 158.692 59.864 A 74.916 74.916 0 0 0 160.159 59.296 A 68.936 68.936 0 0 0 160.205 59.278 Q 160.857 59.017 161.161 58.911 A 5.261 5.261 0 0 1 161.231 58.887 A 2.996 2.996 0 0 1 161.233 58.78 Q 161.239 58.606 161.263 58.275 A 44.38 44.38 0 0 1 161.279 58.057 Q 161.319 57.538 161.327 57.313 A 2.722 2.722 0 0 0 161.328 57.227 A 7.839 7.839 0 0 0 161.28 56.331 Q 161.228 55.881 161.12 55.495 A 4.227 4.227 0 0 0 161.035 55.225 A 6.02 6.02 0 0 0 160.205 53.662 A 8.155 8.155 0 0 0 159.552 52.884 A 10.991 10.991 0 0 0 158.838 52.198 A 31.602 31.602 0 0 1 158.181 51.6 Q 157.893 51.331 157.581 51.029 A 58.631 58.631 0 0 1 156.934 50.391 L 154.297 47.754 Q 152.656 46.113 150.589 44.089 A 706.761 706.761 0 0 0 150.293 43.799 A 707.847 707.847 0 0 0 146.787 40.393 A 814.603 814.603 0 0 0 145.557 39.209 A 559.676 559.676 0 0 0 141.904 35.73 A 501.824 501.824 0 0 0 140.723 34.619 A 394.868 394.868 0 0 1 138.784 32.79 Q 137.904 31.953 137.127 31.203 A 219.715 219.715 0 0 1 136.621 30.713 Q 134.863 29.004 133.984 28.125 A 40.577 40.577 0 0 1 131.32 24.314 A 31.331 31.331 0 0 1 129.541 20.996 A 17.422 17.422 0 0 1 128.176 16.313 A 22.922 22.922 0 0 1 127.93 12.891 A 18.005 18.005 0 0 1 128.498 8.296 A 15.47 15.47 0 0 1 129.541 5.469 A 11.94 11.94 0 0 1 132.845 1.379 A 15.769 15.769 0 0 1 134.863 0 L 135.645 0 L 136.914 0 L 138.233 0 L 139.063 0 A 16.435 16.435 0 0 1 142.572 0.396 A 20.971 20.971 0 0 1 144.824 1.026 Q 147.852 2.051 150.391 3.906 A 16.23 16.23 0 0 1 154.59 8.399 A 10.605 10.605 0 0 1 156.25 14.16 A 4.625 4.625 0 0 1 156.244 14.383 Q 156.226 14.759 156.152 15.381 A 1.325 1.325 0 0 1 156.069 15.725 Q 155.872 16.211 155.274 16.211 A 3.946 3.946 0 0 1 152.686 15.283 Q 151.58 14.37 150.569 12.937 A 16.368 16.368 0 0 1 150.537 12.891 A 55.75 55.75 0 0 1 148.535 9.815 Q 147.559 8.203 146.338 6.739 A 10.458 10.458 0 0 0 143.506 4.346 A 6.986 6.986 0 0 0 140.597 3.451 A 8.559 8.559 0 0 0 139.844 3.418 A 5.647 5.647 0 0 0 137.695 3.857 A 7.372 7.372 0 0 0 136.719 4.346 Q 135.156 5.274 133.984 6.641 A 12.179 12.179 0 0 0 132.08 9.668 Q 131.367 11.285 131.348 12.716 A 5.891 5.891 0 0 0 131.348 12.793 A 17.284 17.284 0 0 0 131.677 16.098 A 20.194 20.194 0 0 0 131.934 17.237 Q 132.52 19.531 133.594 21.631 Q 134.668 23.731 136.084 25.635 A 31.844 31.844 0 0 0 138.578 28.605 A 28.707 28.707 0 0 0 139.063 29.102 L 162.109 51.27 A 9.006 9.006 0 0 1 163.599 52.949 A 12.402 12.402 0 0 1 164.6 54.688 A 11.37 11.37 0 0 1 165.318 56.595 A 8.338 8.338 0 0 1 165.625 58.789 A 6.039 6.039 0 0 1 165.46 60.233 A 4.835 4.835 0 0 1 164.942 61.524 A 5.812 5.812 0 0 1 163.184 63.428 A 7.158 7.158 0 0 1 161.422 64.293 A 8.66 8.66 0 0 1 160.693 64.502 A 12.235 12.235 0 0 1 157.813 64.844 L 156.934 64.844 Q 156.152 64.746 154.492 64.307 A 87.744 87.744 0 0 0 151.074 63.477 A 1101.63 1101.63 0 0 1 149.378 63.098 A 881.517 881.517 0 0 1 147.803 62.744 A 420.484 420.484 0 0 1 147.275 62.625 Q 146.216 62.384 145.899 62.305 A 35.253 35.253 0 0 1 144.822 61.947 Q 143.527 61.496 141.748 60.791 Q 139.16 59.766 136.133 58.35 A 78.491 78.491 0 0 1 131.149 55.791 A 88.134 88.134 0 0 1 129.981 55.127 A 43.796 43.796 0 0 1 126.068 52.589 A 37.04 37.04 0 0 1 124.365 51.27 A 26.86 26.86 0 0 1 121.968 49.049 A 20.821 20.821 0 0 1 120.264 47.022 Q 118.652 44.824 118.652 42.774 A 6.829 6.829 0 0 1 118.878 40.979 A 5.309 5.309 0 0 1 119.873 39.014 A 8.883 8.883 0 0 1 122.852 36.621 A 14.474 14.474 0 0 1 126.405 35.403 A 16.165 16.165 0 0 1 126.66 35.352 A 23.082 23.082 0 0 1 128.757 35.047 A 17.818 17.818 0 0 1 130.469 34.961 Q 130.859 34.961 131.836 35.352 A 24.22 24.22 0 0 1 132.231 35.513 Q 132.763 35.737 133.012 35.88 A 1.658 1.658 0 0 1 133.106 35.938 Z M 284.668 49.903 L 284.668 49.512 Q 287.012 52.149 289.551 54.346 A 33.561 33.561 0 0 0 294.922 58.155 Q 297.754 59.766 300.928 60.645 A 24.713 24.713 0 0 0 306.961 61.516 A 27.749 27.749 0 0 0 307.617 61.524 A 25.208 25.208 0 0 0 315.853 60.109 A 28.644 28.644 0 0 0 316.406 59.912 Q 320.801 58.301 324.365 55.42 Q 327.93 52.539 330.176 48.535 Q 332.422 44.531 332.422 39.844 A 9.278 9.278 0 0 0 332.064 37.222 A 7.894 7.894 0 0 0 331.152 35.205 A 11.516 11.516 0 0 0 327.881 31.836 A 15.652 15.652 0 0 0 323.856 29.881 A 17.767 17.767 0 0 0 323.389 29.737 A 17.579 17.579 0 0 0 318.992 29.013 A 16.337 16.337 0 0 0 318.457 29.004 Q 317.594 29.004 316.438 29.162 A 28.01 28.01 0 0 0 315.283 29.346 A 57.22 57.22 0 0 0 312.808 29.849 A 69.994 69.994 0 0 0 311.231 30.225 A 64.385 64.385 0 0 0 307.396 31.314 A 70.959 70.959 0 0 0 306.836 31.494 A 43.622 43.622 0 0 0 303.759 32.623 A 37.657 37.657 0 0 0 302.637 33.106 A 27.408 27.408 0 0 0 301.04 33.884 Q 300.086 34.391 299.317 34.912 A 11.159 11.159 0 0 0 298.503 35.516 Q 298.13 35.822 297.845 36.123 A 4.513 4.513 0 0 0 297.363 36.719 A 5.26 5.26 0 0 1 297.354 37.006 Q 297.327 37.489 297.222 38.34 A 45.528 45.528 0 0 1 297.217 38.379 Q 297.07 39.551 296.924 40.967 A 127.895 127.895 0 0 0 296.79 42.334 A 102.061 102.061 0 0 0 296.68 43.604 A 40.643 40.643 0 0 1 296.631 44.168 Q 296.558 44.947 296.484 45.313 A 4.425 4.425 0 0 1 296.457 45.787 Q 296.43 46.038 296.376 46.323 A 9.53 9.53 0 0 1 296.289 46.729 Q 296.094 47.559 295.85 48.389 A 7.727 7.727 0 0 1 295.166 50 A 3.944 3.944 0 0 1 294.35 51.025 A 3.686 3.686 0 0 1 294.043 51.27 A 3.611 3.611 0 0 1 292.09 49.365 A 8.779 8.779 0 0 1 291.475 47.319 A 10.585 10.585 0 0 1 291.358 46.436 A 21.346 21.346 0 0 1 291.27 44.502 A 21.304 21.304 0 0 1 291.309 43.213 Q 291.404 41.641 291.406 40.58 A 24 24 0 0 0 291.406 40.528 Q 291.406 39.551 291.455 37.305 Q 291.489 35.761 291.568 33.847 A 271.375 271.375 0 0 1 291.651 32.031 A 123.959 123.959 0 0 1 291.846 28.87 A 159.138 159.138 0 0 1 292.139 25.44 Q 292.481 21.875 293.067 18.311 A 71.129 71.129 0 0 1 294.316 12.297 A 64.678 64.678 0 0 1 294.531 11.475 A 36.048 36.048 0 0 1 295.635 8.033 A 28.277 28.277 0 0 1 296.68 5.615 A 16.11 16.11 0 0 1 297.875 3.557 Q 298.697 2.365 299.658 1.514 A 6.08 6.08 0 0 1 301.538 0.355 A 5.537 5.537 0 0 1 303.516 0 A 9.407 9.407 0 0 1 306.324 0.408 A 8.295 8.295 0 0 1 308.057 1.172 A 12.009 12.009 0 0 1 311.475 4.151 A 14.605 14.605 0 0 1 313.615 7.967 A 16.448 16.448 0 0 1 313.721 8.252 Q 314.551 10.547 314.551 12.891 A 9.51 9.51 0 0 1 313.867 16.455 Q 313.184 18.164 312.451 19.727 A 132.334 132.334 0 0 0 311.035 22.852 A 7.962 7.962 0 0 0 310.352 26.074 Q 312.695 26.074 315.625 26.172 Q 318.555 26.27 321.582 26.66 A 33.016 33.016 0 0 1 327.49 27.979 Q 330.371 28.906 332.617 30.518 A 11.856 11.856 0 0 1 336.182 34.571 A 10.503 10.503 0 0 1 337.21 37.468 Q 337.5 38.88 337.5 40.528 A 17.844 17.844 0 0 1 336.231 47.217 Q 334.961 50.391 332.764 53.125 A 27.801 27.801 0 0 1 327.686 58.008 Q 324.805 60.156 321.533 61.719 A 34.581 34.581 0 0 1 314.893 64.112 A 28.545 28.545 0 0 1 310.426 64.856 A 24.498 24.498 0 0 1 308.399 64.942 A 13.325 13.325 0 0 1 307.098 64.872 Q 305.843 64.749 304.248 64.405 A 40.955 40.955 0 0 1 300.43 63.379 A 47.133 47.133 0 0 1 299.121 62.94 A 35.249 35.249 0 0 1 293.937 60.618 A 38.109 38.109 0 0 1 293.897 60.596 A 36.011 36.011 0 0 1 290.872 58.75 A 29.946 29.946 0 0 1 289.258 57.569 A 15.847 15.847 0 0 1 287 55.421 A 13.442 13.442 0 0 1 285.938 54.004 A 7.887 7.887 0 0 1 284.894 51.681 A 7.057 7.057 0 0 1 284.668 49.903 Z M 280.078 34.18 L 280.371 34.18 L 280.762 34.571 A 3.994 3.994 0 0 0 280.919 34.72 Q 281.11 34.891 281.25 34.961 Q 280.664 36.035 279.346 36.67 A 13.825 13.825 0 0 1 277.489 37.398 A 16.74 16.74 0 0 1 276.416 37.696 A 73.236 73.236 0 0 1 273.917 38.254 A 82.156 82.156 0 0 1 273.047 38.428 A 32.346 32.346 0 0 0 271.436 38.782 Q 270.678 38.97 270.011 39.181 A 19.621 19.621 0 0 0 269.922 39.209 A 12.703 12.703 0 0 0 268.828 39.614 Q 268.303 39.838 267.865 40.091 A 7.063 7.063 0 0 0 267.627 40.235 A 2.096 2.096 0 0 0 267.053 40.755 Q 266.699 41.232 266.699 41.895 Q 266.699 43.848 266.943 45.801 A 89.366 89.366 0 0 0 267.529 49.756 Q 267.871 51.758 268.164 53.76 Q 268.457 55.762 268.457 57.813 Q 268.457 58.301 268.408 59.18 A 16.126 16.126 0 0 1 268.213 60.938 A 4.312 4.312 0 0 1 267.895 62.007 A 3.802 3.802 0 0 1 267.627 62.5 A 1.414 1.414 0 0 1 266.604 63.163 A 1.992 1.992 0 0 1 266.309 63.184 Q 265.375 63.184 264.62 61.845 A 6.097 6.097 0 0 1 264.551 61.719 Q 263.944 60.58 263.513 58.97 A 21.077 21.077 0 0 1 263.281 58.008 A 51.576 51.576 0 0 1 262.778 55.342 A 65.872 65.872 0 0 1 262.451 53.076 A 186.079 186.079 0 0 1 261.994 49.158 A 165.205 165.205 0 0 1 261.865 47.901 A 101.27 101.27 0 0 0 261.642 45.834 Q 261.53 44.891 261.41 44.053 A 57.502 57.502 0 0 0 261.328 43.506 A 29.371 29.371 0 0 0 261.2 42.736 Q 261.002 41.642 260.803 41.152 A 1.907 1.907 0 0 0 260.742 41.016 A 13.058 13.058 0 0 0 260.287 40.969 Q 259.648 40.912 258.566 40.855 A 121.383 121.383 0 0 0 257.861 40.821 A 246.854 246.854 0 0 1 254.602 40.647 A 282.111 282.111 0 0 1 253.467 40.576 Q 251.172 40.43 249.121 40.283 A 119.939 119.939 0 0 0 248.202 40.221 Q 247.113 40.152 246.52 40.14 A 11.318 11.318 0 0 0 246.289 40.137 L 245.313 40.137 Q 243.359 40.137 241.651 41.944 A 16.437 16.437 0 0 0 240.015 43.994 Q 239.331 44.998 238.704 46.189 A 27.097 27.097 0 0 0 238.526 46.533 A 98.783 98.783 0 0 0 236.515 50.736 A 114.904 114.904 0 0 0 235.742 52.49 A 337.376 337.376 0 0 1 234.4 55.567 A 281.02 281.02 0 0 1 233.106 58.448 Q 232.02 60.828 230.862 62.53 A 18.02 18.02 0 0 1 230.469 63.086 Q 229.66 64.183 228.784 64.632 A 2.703 2.703 0 0 1 227.539 64.942 A 2.136 2.136 0 0 1 227.02 64.883 Q 226.387 64.724 226.133 64.135 A 1.606 1.606 0 0 1 226.123 64.112 Q 225.781 63.281 225.781 62.305 A 2.025 2.025 0 0 1 225.788 62.152 Q 225.793 62.078 225.804 61.994 A 4.617 4.617 0 0 1 225.83 61.817 L 225.879 61.524 Q 227.344 58.692 228.955 56.055 A 176.428 176.428 0 0 1 232.276 50.83 A 144.194 144.194 0 0 0 235.596 45.557 A 80.555 80.555 0 0 0 238.574 40.137 A 2.024 2.024 0 0 0 238.142 39.53 Q 237.622 39.012 236.621 38.574 A 42.967 42.967 0 0 0 235.36 38.048 Q 234.235 37.598 232.861 37.11 A 82.976 82.976 0 0 1 230.019 36.038 A 100.289 100.289 0 0 1 228.223 35.303 A 24.939 24.939 0 0 1 224.119 33.124 A 22.992 22.992 0 0 1 223.731 32.862 A 13.994 13.994 0 0 1 220.688 30.038 A 13.099 13.099 0 0 1 220.313 29.541 A 7.301 7.301 0 0 1 218.96 25.607 A 9.088 9.088 0 0 1 218.945 25.098 A 6.818 6.818 0 0 1 220.703 20.459 A 14.407 14.407 0 0 1 224.454 17.435 A 16.579 16.579 0 0 1 225 17.139 A 23.653 23.653 0 0 1 230.371 15.137 A 29.405 29.405 0 0 1 232.385 14.72 Q 233.377 14.554 234.25 14.491 A 14.054 14.054 0 0 1 235.254 14.453 A 21.467 21.467 0 0 1 239.057 14.775 A 16.195 16.195 0 0 1 242.822 15.918 A 42.007 42.007 0 0 1 246.58 17.844 A 53.801 53.801 0 0 1 249.609 19.727 Q 250.781 18.848 251.611 17.774 A 16.921 16.921 0 0 0 253.039 15.588 A 18.635 18.635 0 0 0 253.125 15.43 A 8.401 8.401 0 0 1 253.303 15.048 Q 253.658 14.323 254.443 12.94 A 80.021 80.021 0 0 0 255.95 10.155 A 92.693 92.693 0 0 0 256.494 9.082 A 86.767 86.767 0 0 1 257.968 6.26 A 74.756 74.756 0 0 1 258.545 5.225 A 52.159 52.159 0 0 0 259.009 4.392 Q 259.643 3.224 259.863 2.637 Q 260.513 2.15 260.96 1.966 A 1.883 1.883 0 0 1 261.133 1.905 Q 261.574 1.772 262.334 1.759 A 9.882 9.882 0 0 1 262.5 1.758 L 262.94 1.758 L 263.379 1.758 A 70.682 70.682 0 0 1 264.844 10.156 A 152.931 152.931 0 0 1 265.576 18.75 A 759.226 759.226 0 0 1 266.016 27.344 A 127.276 127.276 0 0 0 266.699 35.938 Q 266.94 35.938 267.509 35.971 A 56.31 56.31 0 0 1 267.774 35.987 A 41.367 41.367 0 0 0 268.14 36.008 Q 268.652 36.035 268.945 36.035 Q 270.313 36.035 271.68 35.742 Q 273.047 35.449 274.414 35.108 Q 275.781 34.766 277.197 34.473 Q 278.613 34.18 280.078 34.18 Z M 28.711 33.399 L 28.223 33.399 A 1.027 1.027 0 0 0 28.148 33.274 Q 28.063 33.152 27.919 33 A 4.411 4.411 0 0 0 27.832 32.91 L 27.442 32.52 A 4.549 4.549 0 0 0 27.435 32.29 Q 27.43 32.18 27.419 32.054 A 10.204 10.204 0 0 0 27.393 31.787 A 7.393 7.393 0 0 1 27.359 31.375 Q 27.344 31.092 27.344 30.762 Q 27.344 30.29 27.312 29.914 A 6.623 6.623 0 0 0 27.295 29.737 A 14.558 14.558 0 0 1 27.274 29.532 Q 27.249 29.278 27.247 29.134 A 1.805 1.805 0 0 1 27.246 29.102 A 12.085 12.085 0 0 1 27.368 27.344 A 9.138 9.138 0 0 1 27.734 25.781 A 9.511 9.511 0 0 0 28.223 22.754 L 28.223 22.266 Q 27.051 20.899 25.879 19.385 A 25.673 25.673 0 0 0 23.389 16.602 Q 22.07 15.332 20.508 14.502 A 7.152 7.152 0 0 0 17.711 13.701 A 8.708 8.708 0 0 0 16.992 13.672 A 6.302 6.302 0 0 0 13.121 15.006 A 8.318 8.318 0 0 0 12.549 15.479 A 15.005 15.005 0 0 0 10.256 18.119 A 19.125 19.125 0 0 0 9.082 20.069 A 33.913 33.913 0 0 0 7.408 23.802 A 42.117 42.117 0 0 0 6.543 26.319 A 70.488 70.488 0 0 0 4.807 33.049 A 65.263 65.263 0 0 0 4.785 33.155 A 73.115 73.115 0 0 0 4.199 36.402 A 56.523 56.523 0 0 0 3.809 39.405 A 80.966 80.966 0 0 0 3.654 41.086 Q 3.535 42.563 3.518 43.613 A 20.89 20.89 0 0 0 3.516 43.946 A 28.938 28.938 0 0 0 3.826 48.262 A 23.797 23.797 0 0 0 4.395 50.977 A 15.306 15.306 0 0 0 5.986 54.787 A 13.534 13.534 0 0 0 7.227 56.543 Q 9.18 58.887 12.061 60.205 Q 14.813 61.465 18.59 61.521 A 23.868 23.868 0 0 0 18.945 61.524 A 23.993 23.993 0 0 0 21.994 61.322 A 28.208 28.208 0 0 0 23.242 61.133 A 35.308 35.308 0 0 0 27.686 60.059 A 34.432 34.432 0 0 0 31.983 58.399 Q 34.082 57.422 35.84 56.25 A 0.336 0.336 0 0 0 35.948 56.229 Q 36.115 56.171 36.401 55.955 A 5.506 5.506 0 0 0 36.524 55.86 A 111.191 111.191 0 0 0 37.024 55.457 A 130.008 130.008 0 0 0 37.549 55.03 A 11.542 11.542 0 0 1 38.355 54.425 A 10.15 10.15 0 0 1 38.623 54.248 Q 39.109 53.939 39.235 53.75 A 0.361 0.361 0 0 0 39.258 53.711 A 0.8 0.8 0 0 0 39.312 53.709 Q 39.429 53.701 39.693 53.663 A 16.963 16.963 0 0 0 39.697 53.662 Q 40.039 53.614 40.137 53.614 A 2.025 2.025 0 0 1 40.29 53.62 Q 40.364 53.625 40.447 53.636 A 4.617 4.617 0 0 1 40.625 53.662 Q 40.878 53.704 40.985 53.71 A 0.573 0.573 0 0 0 41.016 53.711 Q 40.527 55.762 39.16 57.373 A 15.305 15.305 0 0 1 36.471 59.849 A 17.532 17.532 0 0 1 35.889 60.254 Q 33.984 61.524 31.641 62.403 A 43.157 43.157 0 0 1 26.953 63.867 Q 24.609 64.453 22.51 64.698 Q 20.41 64.942 18.75 64.942 A 24.133 24.133 0 0 1 14.14 64.517 A 19.929 19.929 0 0 1 11.084 63.672 A 17.783 17.783 0 0 1 6.605 61.292 A 16.164 16.164 0 0 1 5.127 60.059 A 15.207 15.207 0 0 1 1.576 54.929 A 17.747 17.747 0 0 1 1.318 54.297 A 19.252 19.252 0 0 1 0.235 50.019 A 25.553 25.553 0 0 1 0 46.485 Q 0 44.263 0.287 40.751 A 137.948 137.948 0 0 1 0.293 40.674 A 75.739 75.739 0 0 1 0.762 36.479 A 96.814 96.814 0 0 1 1.318 32.959 A 69.881 69.881 0 0 1 3.32 24.658 A 45.891 45.891 0 0 1 5.218 19.526 A 38.634 38.634 0 0 1 6.397 17.09 A 22.193 22.193 0 0 1 8.362 13.99 A 17.037 17.037 0 0 1 10.645 11.524 A 8.313 8.313 0 0 1 16.309 9.375 A 11.323 11.323 0 0 1 19.934 9.937 A 9.823 9.823 0 0 1 22.998 11.621 A 18.485 18.485 0 0 1 27.588 17.139 A 30.368 30.368 0 0 1 30.371 24.121 A 54.141 54.141 0 0 1 31.095 27.219 Q 31.476 29.114 31.641 30.762 Q 31.445 31.934 30.567 32.666 A 3.44 3.44 0 0 1 29.822 33.147 A 2.599 2.599 0 0 1 28.711 33.399 Z M 173.047 38.477 L 173.047 39.258 A 31.762 31.762 0 0 0 173.598 45.27 A 27.426 27.426 0 0 0 174.268 47.998 A 20.208 20.208 0 0 0 176.91 53.603 A 18.685 18.685 0 0 0 178.027 55.078 A 17.703 17.703 0 0 0 184.277 59.815 A 18.099 18.099 0 0 0 188.854 61.197 A 24.697 24.697 0 0 0 192.969 61.524 Q 195.899 61.524 198.779 60.889 A 86.412 86.412 0 0 0 204.492 59.424 A 131.38 131.38 0 0 1 210.108 57.91 A 23.459 23.459 0 0 1 215.723 57.227 L 216.504 57.227 L 215.723 58.887 A 0.252 0.252 0 0 0 215.666 58.897 Q 215.497 58.942 214.942 59.18 Q 214.472 59.381 213.863 59.652 A 148.146 148.146 0 0 0 213.281 59.912 L 211.328 60.791 Q 210.657 61.093 210.124 61.326 A 70.13 70.13 0 0 1 209.668 61.524 Q 205.469 63.086 201.221 64.014 A 41.257 41.257 0 0 1 192.526 64.941 A 45.356 45.356 0 0 1 192.383 64.942 A 34.801 34.801 0 0 1 187.575 64.627 Q 185.029 64.271 182.86 63.514 A 20.518 20.518 0 0 1 182.227 63.281 A 19.408 19.408 0 0 1 177.428 60.634 A 17.214 17.214 0 0 1 175.098 58.496 Q 172.266 55.371 170.899 50.928 A 29.908 29.908 0 0 1 169.832 45.862 A 40.401 40.401 0 0 1 169.531 40.821 Q 169.531 33.496 170.166 26.367 A 147.633 147.633 0 0 1 172.168 12.012 Q 172.365 11.225 172.562 10.636 A 9.737 9.737 0 0 1 172.754 10.108 A 4.267 4.267 0 0 1 173.033 9.532 Q 173.21 9.23 173.424 9 A 2.532 2.532 0 0 1 173.486 8.936 A 2.013 2.013 0 0 1 174.169 8.493 A 2.764 2.764 0 0 1 174.658 8.35 A 6.345 6.345 0 0 1 175.214 8.266 Q 175.794 8.203 176.563 8.203 L 176.563 9.717 A 20.798 20.798 0 0 1 176.559 10.109 Q 176.544 10.895 176.465 11.133 A 31.495 31.495 0 0 0 176.415 11.5 Q 176.314 12.276 176.123 13.916 Q 175.955 15.36 175.718 17.149 A 320.232 320.232 0 0 1 175.488 18.848 A 440.166 440.166 0 0 0 175.098 21.753 A 508.894 508.894 0 0 0 174.707 24.805 A 1524.301 1524.301 0 0 0 174.329 27.857 A 1314.127 1314.127 0 0 0 173.975 30.762 Q 173.633 33.594 173.34 35.694 A 75.318 75.318 0 0 0 173.226 36.544 Q 173.079 37.696 173.053 38.261 A 4.75 4.75 0 0 0 173.047 38.477 Z M 223.242 25 A 6.345 6.345 0 0 0 225 29.444 A 14.355 14.355 0 0 0 228.368 32.116 A 16.885 16.885 0 0 0 229.297 32.617 A 21.858 21.858 0 0 0 234.668 34.473 Q 237.027 34.961 238.912 35.043 A 17.056 17.056 0 0 0 239.649 35.059 A 3.027 3.027 0 0 0 240.908 34.768 Q 241.366 34.56 241.834 34.202 A 7.347 7.347 0 0 0 242.481 33.643 A 18.719 18.719 0 0 0 244.68 31.079 A 21.487 21.487 0 0 0 245.166 30.371 A 24.02 24.02 0 0 0 247.217 26.563 A 17.424 17.424 0 0 0 247.58 25.641 Q 247.927 24.675 248.016 23.982 A 3.515 3.515 0 0 0 248.047 23.535 A 1.904 1.904 0 0 0 247.704 22.469 Q 247.315 21.883 246.484 21.338 A 16.192 16.192 0 0 0 244.586 20.276 A 21.297 21.297 0 0 0 242.822 19.531 A 30.189 30.189 0 0 0 239.185 18.426 A 27.451 27.451 0 0 0 238.672 18.311 Q 237.126 17.979 236.19 17.898 A 6.354 6.354 0 0 0 235.645 17.871 A 12.383 12.383 0 0 0 234.457 17.933 Q 233.392 18.036 232.08 18.311 Q 229.981 18.75 227.979 19.629 A 12.566 12.566 0 0 0 225.94 20.748 A 10.174 10.174 0 0 0 224.609 21.826 A 4.44 4.44 0 0 0 223.543 23.379 A 4.329 4.329 0 0 0 223.242 25 Z M 304.688 4.297 A 2.474 2.474 0 0 0 303.116 4.869 Q 302.763 5.149 302.442 5.567 A 9.621 9.621 0 0 0 301.634 6.818 Q 301.269 7.485 300.947 8.281 A 17.781 17.781 0 0 0 300.733 8.838 A 25.038 25.038 0 0 0 299.931 11.493 A 30.568 30.568 0 0 0 299.561 13.233 Q 299.121 15.625 298.779 17.92 A 52.376 52.376 0 0 0 298.506 20.04 Q 298.39 21.114 298.34 22.071 Q 298.244 23.892 298.242 24.773 A 16.349 16.349 0 0 0 298.242 24.805 L 298.242 25.83 L 298.242 27.344 L 298.242 28.858 L 298.242 29.883 Q 300.586 28.321 302.734 26.465 A 31.518 31.518 0 0 0 306.592 22.51 Q 308.301 20.41 309.326 17.92 A 13.651 13.651 0 0 0 310.271 14.063 A 16.638 16.638 0 0 0 310.352 12.403 A 14.014 14.014 0 0 0 310.173 10.207 A 16.102 16.102 0 0 0 310.059 9.571 A 9.994 9.994 0 0 0 309.559 7.854 A 8.454 8.454 0 0 0 309.131 6.934 Q 308.496 5.762 307.373 5.03 A 4.468 4.468 0 0 0 305.599 4.365 A 5.901 5.901 0 0 0 304.688 4.297 Z M 260.742 12.012 L 259.863 10.352 A 2.119 2.119 0 0 1 259.809 10.404 Q 259.719 10.488 259.541 10.642 A 31.357 31.357 0 0 1 259.424 10.742 Q 259.145 10.982 259.028 11.091 A 1.925 1.925 0 0 0 258.984 11.133 A 60.809 60.809 0 0 1 258.814 11.472 Q 258.521 12.049 258.008 13.037 A 79.587 79.587 0 0 1 257.096 14.743 A 95.962 95.962 0 0 1 256.494 15.821 Q 255.664 17.285 254.981 18.653 A 84.921 84.921 0 0 1 254.682 19.245 Q 254.308 19.978 254.09 20.361 A 7.606 7.606 0 0 1 254.004 20.508 A 2.598 2.598 0 0 1 254.001 20.624 Q 253.993 20.804 253.963 21.116 A 23.028 23.028 0 0 1 253.955 21.192 A 39.122 39.122 0 0 0 253.939 21.361 Q 253.91 21.661 253.907 21.757 A 0.639 0.639 0 0 0 253.906 21.778 Q 253.906 22.993 254.802 24.747 A 14.438 14.438 0 0 0 254.883 24.903 A 24.251 24.251 0 0 0 257.057 28.296 A 26.744 26.744 0 0 0 257.227 28.516 A 21.157 21.157 0 0 0 258.993 30.522 A 17.702 17.702 0 0 0 260.108 31.543 A 8.208 8.208 0 0 0 260.926 32.153 Q 261.844 32.745 262.619 32.806 A 2.24 2.24 0 0 0 262.793 32.813 A 13.865 13.865 0 0 0 262.79 32.538 Q 262.781 32.08 262.744 31.348 A 226.74 226.74 0 0 1 262.695 30.323 A 297.75 297.75 0 0 1 262.647 29.199 A 297.75 297.75 0 0 0 262.598 28.076 A 226.74 226.74 0 0 0 262.549 27.051 A 64.518 64.518 0 0 1 262.528 26.593 Q 262.5 25.952 262.5 25.586 Q 262.325 24.363 262.112 22.437 A 206.608 206.608 0 0 1 262.061 21.973 A 906.317 906.317 0 0 0 261.572 17.578 A 145.752 145.752 0 0 0 261.359 15.792 Q 261.256 14.976 261.153 14.246 A 84.174 84.174 0 0 0 261.084 13.77 A 57 57 0 0 0 261.025 13.379 Q 260.828 12.097 260.742 12.012 Z M 257.324 36.719 L 258.203 35.938 Q 258.389 35.752 257.601 34.326 A 22.539 22.539 0 0 0 257.52 34.18 A 24.032 24.032 0 0 0 256.462 32.478 A 31.753 31.753 0 0 0 255.322 30.908 A 59.172 59.172 0 0 0 253.694 28.887 A 48.899 48.899 0 0 0 252.734 27.783 Q 251.738 26.672 251.223 26.433 A 0.601 0.601 0 0 0 250.977 26.367 Q 250.879 26.367 250.781 26.465 A 0.306 0.306 0 0 1 250.659 26.538 Q 250.611 26.554 250.553 26.56 A 0.687 0.687 0 0 1 250.488 26.563 Q 249.024 28.711 247.754 31.055 Q 246.484 33.399 245.41 35.938 A 5.079 5.079 0 0 0 246.307 36.376 Q 246.742 36.541 247.247 36.655 A 8.4 8.4 0 0 0 247.315 36.67 Q 248.438 36.914 249.609 36.914 L 251.807 36.914 L 253.613 36.914 Q 253.879 36.914 254.235 36.892 A 18.026 18.026 0 0 0 254.59 36.865 A 14.105 14.105 0 0 1 255.762 36.817 Q 256.233 36.817 256.61 36.785 A 6.623 6.623 0 0 0 256.787 36.768 A 28.81 28.81 0 0 1 256.94 36.751 Q 257.221 36.722 257.31 36.719 A 0.537 0.537 0 0 1 257.324 36.719 Z" vector-effect="non-scaling-stroke"/></g></svg>