<?xml version="1.0" standalone="no"?>
<!DOCTYPE svg PUBLIC "-//W3C//DTD SVG 20010904//EN"
 "http://www.w3.org/TR/2001/REC-SVG-20010904/DTD/svg10.dtd">
<svg version="1.0" xmlns="http://www.w3.org/2000/svg"
 width="920.000000pt" height="920.000000pt" viewBox="0 0 920.000000 920.000000"
 preserveAspectRatio="xMidYMid meet">

<g transform="translate(0.000000,920.000000) scale(0.100000,-0.100000)"
fill="#000000" stroke="none">
<path d="M4347 8448 c-746 -39 -1444 -324 -2013 -822 -920 -804 -1323 -2050
-1052 -3246 51 -227 157 -530 248 -710 16 -33 30 -61 30 -64 0 -2 -28 7 -61
21 -174 70 -389 25 -525 -111 -148 -149 -192 -376 -103 -533 220 -387 589
-822 947 -1118 587 -484 1236 -785 1987 -920 439 -79 979 -81 1429 -4 1083
184 2044 775 2704 1664 164 221 323 485 348 578 16 61 18 173 4 235 -31 134
-136 265 -263 327 -131 64 -268 68 -406 12 -34 -14 -61 -24 -61 -22 0 1 13 31
29 66 112 250 201 572 248 904 25 180 25 652 0 835 -38 269 -103 530 -192 765
-56 150 -204 447 -289 583 -432 686 -1095 1192 -1866 1425 -255 77 -535 125
-780 133 -85 3 -173 6 -195 7 -22 1 -97 -1 -168 -5z m353 -68 c694 -40 1293
-266 1850 -696 142 -110 407 -372 524 -519 645 -810 869 -1847 616 -2855 -74
-293 -197 -588 -356 -855 -64 -108 -112 -156 -193 -193 -48 -23 -70 -27 -151
-27 -83 0 -102 3 -154 28 -119 55 -190 140 -222 267 -26 103 -15 152 61 280
179 302 287 598 340 935 22 138 31 472 16 621 -56 561 -297 1084 -683 1489
-344 360 -791 614 -1268 719 -358 79 -742 79 -1100 0 -950 -209 -1701 -968
-1909 -1929 -49 -226 -65 -571 -37 -809 44 -380 172 -741 383 -1076 l78 -125
0 -90 c0 -82 -3 -97 -33 -157 -42 -85 -128 -167 -209 -199 -72 -28 -195 -31
-263 -5 -78 29 -146 83 -188 149 -113 179 -138 223 -197 342 -185 377 -289
752 -326 1168 -17 189 -6 563 21 742 89 588 300 1082 666 1555 106 138 380
415 519 525 228 182 538 366 798 474 321 133 703 220 1052 240 191 12 186 12
365 1z m135 -836 c1116 -138 1991 -1025 2121 -2150 20 -170 15 -475 -11 -639
-47 -302 -162 -626 -313 -877 -77 -129 -91 -161 -98 -229 -12 -125 37 -259
131 -354 113 -114 281 -161 433 -121 29 7 52 10 52 7 0 -18 -209 -261 -320
-371 -254 -253 -530 -450 -855 -610 -341 -168 -607 -252 -995 -312 -126 -19
-185 -22 -445 -22 -366 -1 -514 17 -830 99 -627 163 -1192 511 -1622 1000 -68
77 -123 142 -123 146 0 3 34 -2 75 -10 227 -46 459 103 520 334 18 69 19 154
4 210 -6 21 -42 89 -81 150 -83 133 -193 354 -243 489 -47 127 -99 331 -122
476 -26 163 -25 569 0 723 44 260 111 474 216 692 120 249 252 441 433 630
538 564 1300 835 2073 739z m3057 -3825 c133 -28 243 -115 301 -236 30 -64 32
-75 32 -179 0 -109 -1 -111 -39 -185 -60 -114 -187 -315 -282 -446 -136 -186
-265 -335 -438 -508 -906 -901 -2165 -1336 -3431 -1185 -1263 151 -2395 878
-3061 1966 -81 132 -94 185 -71 299 57 280 357 426 612 299 72 -36 118 -84
199 -209 150 -229 284 -394 465 -575 522 -521 1172 -840 1926 -947 197 -27
685 -25 882 5 585 88 1092 298 1547 641 361 272 677 629 888 1004 69 123 117
176 193 215 93 48 182 61 277 41z"/>
<path d="M4630 8246 c0 -8 -3 -21 -6 -29 -3 -10 3 -17 20 -21 32 -8 32 -16 8
-266 l-17 -175 -27 -3 c-23 -3 -28 -8 -28 -31 0 -27 3 -29 58 -34 31 -4 85 -9
118 -13 l61 -6 5 31 c6 39 3 41 -45 41 l-39 0 7 88 c4 48 8 88 9 89 1 1 26 0
54 -4 49 -5 52 -7 52 -34 0 -22 6 -30 26 -35 14 -4 29 -3 34 2 4 5 11 48 15
97 l7 87 -31 0 c-24 0 -32 -5 -37 -25 -6 -23 -11 -25 -61 -25 l-55 0 7 68 c3
37 8 82 11 101 l5 34 56 -7 c31 -4 60 -9 64 -12 5 -3 9 -25 9 -50 0 -43 1 -44
34 -44 l33 0 7 76 c4 42 5 78 2 81 -4 5 -284 32 -333 33 -13 0 -23 -6 -23 -14z"/>
<path d="M4122 8238 c-48 -16 -116 -81 -143 -135 -33 -69 -34 -215 -1 -288 45
-98 124 -154 218 -155 107 0 192 55 235 154 19 41 23 70 24 142 0 85 -2 96
-35 160 -49 96 -96 128 -193 131 -40 1 -87 -3 -105 -9z m142 -79 c103 -81 114
-363 15 -414 -108 -56 -201 34 -215 207 -8 93 7 151 51 195 27 27 40 33 78 33
30 0 53 -7 71 -21z"/>
<path d="M5458 8094 c-12 -25 -6 -36 25 -47 5 -1 -28 -94 -74 -205 -80 -199
-83 -203 -108 -197 -22 5 -28 1 -37 -23 l-11 -29 99 -40 c92 -38 99 -39 108
-22 16 29 12 45 -15 57 l-25 11 36 83 c19 45 37 84 40 87 2 2 46 -12 98 -33
l95 -37 -36 -87 c-20 -48 -37 -88 -38 -90 -1 -1 -14 2 -29 7 -23 9 -27 7 -41
-19 -15 -29 -15 -31 9 -40 14 -5 57 -23 97 -40 39 -16 74 -30 78 -30 4 0 12
13 18 29 9 26 8 30 -13 40 -23 10 -24 13 -11 43 7 18 45 109 83 201 64 155 71
168 92 164 17 -3 26 3 38 24 13 27 13 30 -3 36 -10 3 -54 21 -98 40 -43 18
-82 30 -86 25 -4 -4 -10 -17 -14 -29 -5 -18 -1 -25 20 -35 14 -6 24 -16 22
-22 -47 -116 -61 -146 -71 -146 -6 0 -50 16 -98 36 l-86 36 32 77 c31 73 33
76 62 73 25 -2 33 2 43 24 6 15 10 27 9 28 -10 7 -185 76 -191 76 -4 0 -13
-12 -19 -26z"/>
<path d="M3403 8059 c-82 -38 -83 -39 -71 -65 10 -21 17 -25 40 -20 l28 6 0
-116 0 -116 -32 27 c-18 15 -57 50 -87 78 -53 50 -54 51 -32 65 24 17 26 31 8
56 -12 16 -19 14 -107 -26 -52 -23 -96 -43 -98 -44 -1 -1 2 -13 8 -28 7 -20
16 -26 33 -24 17 2 55 -24 148 -103 114 -97 126 -110 150 -170 l27 -64 -24
-13 c-27 -14 -30 -30 -11 -56 12 -16 19 -14 112 25 55 24 101 44 103 44 1 1
-3 16 -9 33 -9 28 -13 30 -35 21 -14 -5 -29 -9 -33 -9 -4 0 -21 30 -38 68
l-29 67 13 160 c10 122 17 163 28 171 15 11 12 59 -4 68 -3 2 -43 -14 -88 -35z"/>
<path d="M6086 7815 c-16 -25 -16 -28 -1 -39 15 -11 15 -24 -6 -171 -22 -159
-23 -161 -66 -222 -44 -62 -45 -62 -69 -46 -14 8 -26 14 -27 12 -1 -2 -10 -14
-20 -26 -18 -21 -18 -21 78 -88 91 -64 97 -66 110 -49 20 26 18 42 -5 56 -11
7 -20 16 -20 20 0 4 18 33 40 64 37 53 51 63 180 131 91 48 149 73 166 71 18
-2 31 4 40 18 14 21 12 24 -48 66 -89 63 -85 62 -104 32 -17 -25 -17 -27 5
-43 22 -17 21 -17 -75 -75 -53 -31 -98 -55 -101 -53 -6 6 32 205 41 214 3 4
12 1 18 -5 18 -18 34 -14 51 12 16 23 15 24 -71 82 -48 33 -90 60 -93 62 -3 1
-14 -9 -23 -23z"/>
<path d="M2723 7697 c-95 -67 -172 -125 -173 -129 0 -11 81 -138 89 -138 3 0
17 9 30 19 20 15 22 21 12 39 -32 60 -32 69 4 96 l34 26 127 -181 c124 -177
126 -181 105 -195 -24 -17 -26 -32 -6 -57 13 -18 19 -15 104 44 50 35 91 68
91 74 0 5 -7 19 -15 29 -14 18 -15 18 -41 1 -14 -9 -30 -13 -34 -8 -16 18
-230 332 -235 344 -3 9 8 21 30 33 l36 19 32 -31 c18 -18 38 -32 43 -32 19 0
46 38 38 52 -16 27 -89 118 -94 117 -3 0 -82 -56 -177 -122z"/>
<path d="M6608 7436 c-22 -16 -22 -25 -3 -46 13 -14 -2 -31 -147 -168 -155
-147 -161 -152 -180 -136 -18 17 -20 17 -40 -4 l-22 -21 58 -63 c92 -99 127
-129 185 -156 67 -31 142 -27 220 12 151 77 218 229 158 360 -17 36 -56 86
-113 146 -48 49 -90 90 -93 90 -3 0 -14 -7 -23 -14z m143 -208 c39 -76 18
-150 -66 -235 -102 -103 -195 -115 -280 -38 l-39 36 40 38 c21 21 95 91 163
155 121 113 124 116 144 99 10 -10 28 -35 38 -55z"/>
<path d="M2326 7364 l-79 -74 23 -25 24 -25 21 20 22 21 151 -158 c134 -141
149 -159 136 -174 -19 -21 -18 -33 6 -54 21 -19 22 -18 98 58 l77 77 -22 21
c-21 21 -23 21 -47 6 l-25 -17 -150 157 -150 157 19 21 c20 21 20 21 -2 42
l-23 21 -79 -74z"/>
<path d="M2080 7104 c-83 -70 -115 -194 -67 -265 58 -87 130 -99 246 -44 81
39 106 42 139 19 51 -35 45 -112 -11 -149 -24 -15 -28 -15 -66 4 -22 12 -44
21 -49 21 -10 0 -38 -58 -31 -64 2 -2 31 -20 63 -40 54 -34 61 -37 84 -24 28
15 82 78 106 125 9 18 16 53 16 78 0 95 -61 164 -150 173 -43 4 -61 -1 -124
-32 -103 -50 -141 -47 -165 13 -10 24 -10 34 3 59 24 47 44 54 90 30 l39 -20
18 23 c10 13 19 27 19 31 0 7 -68 56 -107 76 -18 10 -26 8 -53 -14z"/>
<path d="M7052 6924 c-18 -13 -20 -19 -11 -36 6 -12 7 -24 2 -29 -5 -5 -87
-58 -183 -119 -174 -109 -175 -109 -193 -89 -16 20 -18 20 -42 5 -15 -10 -23
-22 -18 -29 8 -14 148 -240 169 -274 l13 -21 71 26 c38 15 70 30 70 34 0 24
-22 59 -34 55 -8 -3 -30 -9 -50 -12 -33 -7 -36 -5 -72 49 -20 31 -35 58 -33
60 14 12 151 96 157 96 5 0 19 -19 32 -42 l23 -41 -23 -19 c-21 -17 -21 -19
-6 -43 9 -14 18 -25 21 -25 3 0 129 76 144 87 2 2 -1 15 -8 29 -9 22 -16 25
-41 19 -26 -6 -32 -2 -56 35 -15 22 -25 42 -23 43 26 19 142 87 148 87 5 0 21
-24 37 -54 l28 -54 -32 -27 c-30 -25 -31 -27 -16 -51 9 -13 20 -24 25 -24 15
0 119 72 119 82 0 12 -181 298 -189 298 -4 0 -17 -7 -29 -16z"/>
<path d="M1794 6601 c-49 -23 -66 -45 -133 -178 l-51 -103 29 -14 c27 -14 30
-14 42 5 14 19 19 17 212 -76 186 -90 197 -97 186 -116 -6 -11 -9 -22 -7 -24
7 -6 47 -25 52 -25 3 0 26 40 51 90 l45 90 -30 15 c-28 14 -30 14 -41 -7 -6
-13 -13 -24 -14 -26 -5 -6 -145 68 -145 76 0 4 7 18 16 30 14 21 22 22 142 22
l127 1 27 59 27 60 -30 15 c-28 15 -30 15 -41 -10 -11 -24 -14 -25 -107 -25
-53 0 -106 -3 -118 -6 -20 -6 -23 -3 -23 23 0 34 -33 87 -71 115 -38 29 -96
32 -145 9z m106 -106 c16 -8 34 -24 40 -34 13 -25 13 -87 0 -111 -10 -19 -15
-17 -105 27 -52 26 -95 53 -95 59 0 7 12 26 26 43 21 25 33 31 65 31 22 0 53
-7 69 -15z"/>
<path d="M7342 6411 c-8 -4 -12 -19 -10 -31 3 -22 -11 -29 -200 -101 -195 -74
-203 -76 -213 -57 -8 15 -17 18 -37 13 -15 -4 -29 -8 -31 -10 -2 -2 13 -47 33
-99 l37 -95 30 11 c33 11 32 9 20 41 -9 24 -7 26 66 52 62 23 77 25 84 14 19
-30 6 -55 -75 -140 l-84 -88 25 -64 c25 -64 25 -64 54 -53 26 9 29 14 23 39
-5 25 2 36 53 90 33 34 65 72 72 84 l12 23 37 -20 c73 -39 173 -18 212 45 33
54 27 125 -21 249 -41 106 -53 119 -87 97z m52 -190 c19 -65 -41 -131 -119
-131 -31 0 -84 47 -87 79 -3 21 6 27 87 57 50 18 94 32 100 30 5 -1 14 -17 19
-35z"/>
<path d="M1525 6078 c-28 -88 -84 -323 -78 -328 4 -4 18 -11 30 -14 18 -6 24
-2 29 18 3 14 8 26 11 26 2 0 97 -25 209 -55 113 -30 208 -55 211 -55 3 0 2
-11 -1 -25 -5 -21 -2 -27 20 -36 15 -5 30 -6 34 -2 4 4 27 83 52 174 l44 166
-63 32 c-35 17 -67 31 -72 31 -4 0 -13 -12 -20 -27 -11 -25 -10 -29 10 -43 60
-40 60 -40 45 -103 -7 -32 -16 -60 -19 -63 -3 -3 -45 5 -94 18 -81 23 -88 26
-85 48 8 53 21 70 51 70 23 0 30 5 35 26 4 15 5 28 3 30 -2 2 -40 15 -85 28
l-81 23 -10 -30 c-6 -16 -11 -31 -11 -32 0 -2 11 -6 25 -9 28 -7 29 -14 14
-69 -10 -38 -12 -39 -45 -32 -19 3 -59 14 -88 23 l-54 17 17 55 17 55 47 3
c42 3 47 5 47 28 0 13 0 27 1 32 0 8 -82 29 -119 31 -12 1 -24 -5 -27 -11z"/>
<path d="M7048 5772 c-16 -2 -28 -6 -28 -10 0 -12 20 -135 25 -160 5 -18 11
-23 33 -20 21 2 28 9 30 31 3 23 8 27 35 27 18 0 38 -4 45 -8 7 -5 18 -43 26
-86 l13 -77 -39 -20 c-40 -20 -58 -18 -58 7 0 9 -11 14 -30 14 -26 0 -30 -3
-29 -27 2 -65 25 -178 37 -177 7 1 21 2 32 3 14 1 20 8 20 27 0 23 19 35 241
142 l240 116 -6 36 c-4 19 -10 38 -13 41 -4 4 -63 16 -132 28 -352 61 -396 71
-406 94 -7 16 -16 21 -36 19z m335 -166 c48 -7 89 -15 92 -18 3 -3 -36 -24
-86 -47 -94 -43 -108 -43 -109 0 0 9 -3 31 -6 48 -8 36 -12 36 109 17z"/>
<path d="M1396 5478 c-3 -50 -5 -92 -4 -94 2 -1 17 -4 33 -6 27 -3 30 0 33 25
3 26 6 28 30 22 38 -9 325 -116 335 -125 7 -6 -328 -80 -360 -80 -8 0 -13 13
-13 29 0 23 -5 30 -26 35 -15 4 -30 3 -34 -1 -4 -4 -10 -59 -14 -120 l-6 -113
35 0 c30 0 35 3 35 23 0 22 12 26 213 75 116 29 236 60 265 68 l53 16 -3 40
-3 41 -247 105 c-222 95 -248 108 -248 129 0 19 -5 23 -34 23 l-33 0 -7 -92z"/>
<path d="M7088 5103 c-3 -151 1 -194 25 -237 34 -60 68 -81 135 -81 63 0 98
19 128 69 l17 29 20 -27 c26 -36 68 -56 118 -56 33 0 47 6 74 33 41 41 51 81
60 230 l7 117 -36 0 c-32 0 -36 -3 -36 -26 l0 -26 -182 6 c-243 9 -258 11
-258 42 0 21 -5 24 -35 24 l-35 0 -2 -97z m198 -63 l64 0 0 -29 c0 -72 -42
-121 -104 -121 -64 1 -96 37 -96 108 0 48 7 55 44 48 16 -3 57 -6 92 -6z m308
-54 c-3 -68 -75 -108 -136 -75 -21 12 -48 66 -48 99 0 20 5 21 93 18 l92 -3
-1 -39z"/>
<path d="M1911 4953 c-19 -4 -22 -10 -19 -34 3 -16 4 -29 3 -29 0 0 -88 -9
-195 -20 -247 -25 -238 -26 -246 5 -5 20 -13 25 -36 25 l-30 0 7 -87 c10 -126
12 -133 46 -133 25 0 29 4 29 30 0 34 -8 32 220 55 85 8 169 17 187 20 29 5
32 3 35 -22 3 -25 7 -28 33 -25 16 2 31 4 32 5 1 2 -3 51 -9 110 -7 67 -15
106 -22 106 -6 -1 -22 -4 -35 -6z"/>
<path d="M7051 4647 c-19 -74 -21 -91 -10 -98 24 -16 54 -6 57 19 4 27 4 27
51 -2 l39 -25 -20 -80 c-19 -76 -22 -81 -47 -81 -14 0 -37 -3 -50 -7 -22 -5
-23 -4 -17 24 6 27 4 31 -20 37 -15 4 -30 3 -34 -1 -4 -4 -17 -48 -29 -97 -18
-72 -19 -91 -9 -97 23 -15 50 -10 55 11 3 11 9 20 13 20 67 0 527 33 532 38 4
4 9 22 10 41 3 33 2 34 -217 177 -182 119 -221 148 -225 171 -3 18 -13 29 -31
33 -24 7 -26 5 -48 -83z m296 -199 l88 -53 -103 -9 c-56 -5 -105 -6 -108 -3
-8 8 17 117 27 117 4 0 47 -24 96 -52z"/>
<path d="M1750 4534 c-124 -35 -230 -64 -236 -64 -7 0 -14 9 -17 20 -4 17 -9
18 -35 9 l-31 -10 15 -47 c8 -26 19 -66 25 -90 11 -41 13 -43 43 -36 40 8 38
6 26 39 -6 15 -8 30 -6 33 8 7 321 100 325 96 3 -3 -47 -58 -287 -316 l-35
-37 18 -65 c18 -66 22 -70 61 -60 16 4 19 12 16 32 l-4 28 209 61 208 60 9
-23 c8 -18 15 -23 30 -18 37 11 39 21 15 109 -24 86 -24 86 -53 81 -39 -8 -40
-10 -28 -45 l11 -31 -72 -21 c-40 -11 -103 -29 -142 -40 -38 -11 -79 -23 -89
-26 -11 -3 26 47 85 113 165 188 209 241 209 252 0 21 -23 62 -34 61 -6 0
-112 -29 -236 -65z"/>
<path d="M6866 4064 c-72 -142 -82 -208 -46 -292 26 -61 94 -128 165 -162 74
-37 182 -36 247 3 60 35 85 68 152 203 l54 109 -29 15 c-30 14 -39 11 -51 -22
-2 -4 -92 38 -201 93 -188 95 -197 101 -186 121 10 18 8 24 -7 35 -10 7 -23
13 -28 13 -6 0 -38 -52 -70 -116z m251 -151 c104 -53 189 -97 191 -99 2 -1 -3
-15 -11 -31 -43 -81 -128 -116 -219 -89 -109 32 -195 109 -205 184 -6 41 26
132 46 132 6 0 95 -43 198 -97z"/>
<path d="M2020 3957 c-30 -13 -106 -51 -169 -85 -105 -58 -115 -62 -131 -47
-14 13 -22 14 -44 4 -15 -7 -25 -15 -24 -18 29 -59 93 -161 102 -161 7 0 20 6
30 13 15 11 16 17 5 40 -7 15 -10 29 -8 31 8 8 255 142 282 154 48 21 101 15
130 -13 31 -31 38 -64 22 -102 -18 -42 -56 -71 -205 -153 -124 -68 -134 -72
-146 -55 -7 10 -15 22 -16 27 -4 10 -58 -10 -58 -22 0 -3 23 -48 51 -98 l51
-91 29 15 c26 13 28 17 18 36 -8 16 -8 22 2 28 7 5 68 39 136 77 135 74 195
119 218 164 44 85 -16 233 -108 268 -45 17 -107 12 -167 -12z"/>
<path d="M4311 7490 c-614 -60 -1184 -354 -1579 -815 -302 -352 -492 -776
-558 -1240 -23 -163 -23 -468 0 -630 50 -351 169 -675 348 -952 71 -110 98
-183 105 -283 15 -216 -120 -419 -328 -495 -55 -19 -64 -26 -67 -50 -3 -23 13
-43 110 -137 469 -458 1072 -760 1712 -857 761 -117 1549 53 2180 469 164 109
255 179 402 311 186 166 234 235 184 259 -8 4 -54 26 -101 49 -186 88 -290
268 -276 476 7 105 27 157 100 268 173 264 305 636 348 982 15 129 15 421 0
550 -132 1077 -957 1926 -2021 2080 -137 19 -428 27 -559 15z m549 -85 c867
-130 1587 -735 1860 -1565 122 -370 147 -798 69 -1178 -56 -275 -167 -550
-307 -761 -76 -115 -102 -189 -109 -311 -6 -111 9 -188 59 -290 43 -90 150
-195 246 -243 l72 -36 -87 -86 c-752 -742 -1857 -1038 -2888 -775 -422 107
-831 312 -1162 582 -102 83 -283 248 -283 258 0 4 30 22 68 41 135 68 251 219
288 375 22 93 15 216 -18 309 -13 39 -55 117 -91 175 -461 717 -469 1673 -20
2415 132 218 336 450 533 607 362 288 808 464 1275 502 96 8 391 -4 495 -19z"/>
<path d="M4373 6705 c-358 -82 -613 -400 -613 -765 0 -360 242 -670 594 -760
97 -24 261 -27 356 -5 301 70 527 295 596 594 22 94 20 267 -5 363 -68 262
-271 474 -536 558 -90 29 -298 37 -392 15z m351 -65 c232 -59 426 -241 506
-476 90 -260 10 -563 -200 -757 -213 -197 -530 -246 -793 -123 -422 196 -551
737 -263 1103 107 135 255 227 431 266 60 14 246 6 319 -13z"/>
<path d="M4400 6565 c-85 -19 -212 -83 -278 -143 l-53 -47 145 -145 145 -144
28 26 c40 39 94 58 161 58 48 0 68 -6 114 -34 l56 -33 142 142 142 142 -46 40
c-142 125 -362 179 -556 138z"/>
<path d="M4903 6172 l-142 -145 10 -48 c22 -103 -51 -230 -150 -260 l-41 -12
0 -205 0 -204 52 7 c141 20 252 77 363 189 91 92 143 184 171 301 22 96 15
255 -16 347 -24 70 -79 170 -95 173 -6 1 -74 -64 -152 -143z"/>
<path d="M3984 6255 c-14 -25 -37 -80 -51 -122 -111 -352 95 -722 453 -813
126 -32 114 -51 114 184 l0 204 -36 12 c-50 17 -113 76 -136 128 -14 30 -19
61 -17 103 l3 60 -145 145 c-79 79 -147 144 -151 144 -4 0 -19 -20 -34 -45z"/>
<path d="M4500 6059 c-64 -26 -100 -94 -81 -152 25 -76 103 -113 174 -84 99
42 102 184 4 230 -39 19 -61 20 -97 6z"/>
<path d="M5150 6605 l0 -65 50 0 50 0 0 65 0 65 -50 0 -50 0 0 -65z"/>
<path d="M5640 6600 l0 -66 45 0 45 0 0 66 0 66 -45 0 -45 0 0 -66z"/>
<path d="M5944 6655 c-3 -7 -4 -37 -2 -66 l3 -54 45 0 45 0 0 64 0 65 -43 2
c-27 1 -45 -3 -48 -11z"/>
<path d="M5280 6595 l0 -65 45 0 45 0 0 65 0 65 -45 0 -45 0 0 -65z"/>
<path d="M3210 6565 l0 -65 45 0 45 0 0 65 0 65 -45 0 -45 0 0 -65z"/>
<path d="M3330 6565 l0 -65 50 0 50 0 0 65 0 65 -50 0 -50 0 0 -65z"/>
<path d="M3650 6565 l0 -65 45 0 45 0 0 65 0 65 -45 0 -45 0 0 -65z"/>
<path d="M2860 6545 l0 -65 45 0 45 0 0 65 0 65 -45 0 -45 0 0 -65z"/>
<path d="M5660 6315 l0 -65 45 0 45 0 0 65 0 65 -45 0 -45 0 0 -65z"/>
<path d="M5450 6300 l0 -66 45 0 45 0 0 66 0 66 -45 0 -45 0 0 -66z"/>
<path d="M6040 6305 l0 -65 50 0 50 0 0 65 0 65 -50 0 -50 0 0 -65z"/>
<path d="M3302 6352 l-43 -3 3 -62 3 -62 45 0 45 0 3 59 c2 32 -1 62 -5 65 -4
3 -27 5 -51 3z"/>
<path d="M3120 6275 l0 -65 45 0 45 0 0 65 0 65 -45 0 -45 0 0 -65z"/>
<path d="M2750 6255 l0 -65 50 0 50 0 0 65 0 65 -50 0 -50 0 0 -65z"/>
<path d="M2880 6255 l0 -65 45 0 45 0 0 65 0 65 -45 0 -45 0 0 -65z"/>
<path d="M5470 6045 l0 -65 45 0 45 0 0 65 0 65 -45 0 -45 0 0 -65z"/>
<path d="M6060 6036 l0 -66 44 0 c25 0 47 -3 49 -7 3 -5 25 -8 49 -8 l43 0 3
59 c2 32 -1 62 -5 67 -4 4 -47 10 -95 14 l-88 7 0 -66z"/>
<path d="M6330 6025 l0 -65 45 0 45 0 0 65 0 65 -45 0 -45 0 0 -65z"/>
<path d="M3332 6013 l3 -68 45 0 45 0 0 65 0 65 -48 3 -48 3 3 -68z"/>
<path d="M5740 6010 l0 -69 45 1 45 1 0 68 0 69 -45 0 -45 0 0 -70z"/>
<path d="M5880 6015 l0 -65 50 0 50 0 0 65 0 65 -50 0 -50 0 0 -65z"/>
<path d="M3220 6005 l0 -65 45 0 45 0 0 65 0 65 -45 0 -45 0 0 -65z"/>
<path d="M3460 5995 l0 -65 50 0 50 0 0 65 0 65 -50 0 -50 0 0 -65z"/>
<path d="M2870 5975 l0 -65 45 0 45 0 0 65 0 65 -45 0 -45 0 0 -65z"/>
<path d="M2670 5965 l0 -65 50 0 50 0 0 65 0 65 -50 0 -50 0 0 -65z"/>
<path d="M2400 5795 l0 -65 45 0 45 0 0 65 0 65 -45 0 -45 0 0 -65z"/>
<path d="M5820 5755 l0 -65 45 0 45 0 0 65 0 65 -45 0 -45 0 0 -65z"/>
<path d="M6190 5755 l0 -65 45 0 45 0 0 65 0 65 -45 0 -45 0 0 -65z"/>
<path d="M5580 5745 l0 -65 45 0 45 0 0 65 0 65 -45 0 -45 0 0 -65z"/>
<path d="M2870 5705 l0 -65 45 0 45 0 0 65 0 65 -45 0 -45 0 0 -65z"/>
<path d="M2994 5705 l0 -65 48 0 48 0 0 65 0 65 -48 0 -49 0 1 -65z"/>
<path d="M6394 5495 l0 -65 48 0 48 0 0 65 0 65 -48 0 -48 0 0 -65z"/>
<path d="M6630 5495 l0 -65 50 0 50 0 0 65 0 65 -50 0 -50 0 0 -65z"/>
<path d="M6260 5485 l0 -65 50 0 50 0 0 65 0 65 -50 0 -50 0 0 -65z"/>
<path d="M5960 5465 l0 -65 50 0 50 0 0 65 0 65 -50 0 -50 0 0 -65z"/>
<path d="M3457 5494 c-4 -4 -7 -34 -7 -66 l0 -58 50 0 51 0 -3 63 -3 62 -40 3
c-23 2 -44 0 -48 -4z"/>
<path d="M3660 5423 l0 -68 45 0 45 0 0 68 0 67 -45 0 -45 0 0 -67z"/>
<path d="M5390 5425 l0 -65 50 0 50 0 0 65 0 65 -50 0 -50 0 0 -65z"/>
<path d="M3170 5395 l0 -65 50 0 50 0 0 65 0 65 -50 0 -50 0 0 -65z"/>
<path d="M2482 5378 l3 -63 48 -3 47 -3 0 65 0 66 -50 0 -51 0 3 -62z"/>
<path d="M3122 5108 c-9 -12 -12 -261 -10 -1139 l3 -1124 175 -12 c424 -30
733 -119 964 -276 74 -50 177 -154 212 -213 38 -64 61 -60 118 20 191 267 592
430 1150 467 94 7 177 16 184 22 9 7 12 245 12 1127 0 980 -2 1119 -15 1130
-25 21 -367 8 -489 -19 -320 -69 -634 -233 -858 -449 l-47 -45 -88 78 c-232
204 -524 352 -821 416 -130 28 -471 40 -490 17z m480 -87 c282 -61 559 -202
791 -405 l87 -77 0 -1046 0 -1047 -35 42 c-53 62 -178 152 -293 211 -221 113
-512 182 -869 206 l-103 7 0 1070 0 1071 163 -6 c105 -4 196 -13 259 -26z
m2258 -1040 l0 -1069 -102 -6 c-201 -13 -420 -48 -586 -92 l-23 -7 20 34 c76
132 441 823 436 827 -2 3 -64 -5 -136 -17 -73 -12 -134 -20 -136 -17 -3 3 111
232 252 510 141 278 253 506 250 506 -4 0 -86 -25 -182 -56 -96 -30 -176 -54
-178 -52 -2 2 17 114 43 250 35 186 50 248 62 252 8 2 75 4 148 5 l132 1 0
-1069z m-472 787 c-152 -307 -240 -490 -236 -494 2 -1 65 9 141 23 76 14 140
24 142 21 3 -2 -118 -237 -269 -521 -150 -284 -270 -517 -267 -517 4 0 77 20
161 45 85 25 157 44 161 43 7 -3 -15 -76 -117 -396 l-65 -202 -42 -17 c-69
-27 -208 -102 -262 -141 -27 -20 -80 -65 -117 -101 l-68 -64 0 1040 0 1041 71
66 c200 189 471 339 733 407 188 48 185 71 34 -233z"/>
<path d="M3775 4411 c-42 -25 -83 -76 -111 -136 l-24 -50 -97 3 c-87 3 -103 1
-142 -20 -50 -27 -81 -75 -81 -126 0 -46 32 -132 70 -187 l32 -47 -21 -27
c-123 -154 -130 -284 -17 -344 34 -18 59 -22 144 -23 l103 -1 29 -61 c39 -82
101 -149 153 -163 80 -21 171 42 223 156 l24 52 64 -10 c181 -26 287 69 242
217 -8 27 -31 75 -51 108 l-36 58 34 48 c75 102 99 184 74 244 -32 76 -130
115 -257 103 l-65 -6 -17 48 c-23 61 -79 138 -121 163 -41 26 -112 26 -152 1z
m114 -36 c16 -8 41 -29 56 -47 33 -39 77 -130 67 -138 -4 -4 -41 -17 -83 -29
l-75 -23 -40 20 c-21 11 -58 25 -81 32 -24 7 -43 17 -43 22 0 21 51 106 82
134 49 47 72 53 117 29z m-271 -199 c1 -2 -6 -45 -16 -96 l-19 -93 -63 -52
-64 -53 -24 34 c-88 130 -81 235 18 263 30 9 158 6 168 -3z m122 -37 c30 -11
56 -22 58 -24 2 -1 -32 -21 -74 -44 -42 -23 -78 -40 -81 -38 -3 4 12 87 22
115 6 16 11 16 75 -9z m557 -4 c74 -44 69 -127 -16 -243 l-32 -43 -69 63 c-54
50 -69 69 -69 93 -1 17 -7 56 -15 87 -9 41 -10 59 -2 62 27 13 172 -1 203 -19z
m-247 -51 c7 -30 10 -57 8 -59 -2 -2 -34 16 -71 40 l-67 43 42 15 c71 25 75
23 88 -39z m-79 -67 c108 -72 110 -77 103 -227 -4 -100 -5 -100 -144 -174
l-88 -46 -54 31 c-29 17 -76 48 -105 68 -51 35 -52 37 -59 98 -3 35 -3 92 1
128 6 63 8 67 47 92 64 40 171 93 189 93 9 0 58 -28 110 -63z m-396 -255 c-3
-3 -25 13 -48 37 l-42 42 45 40 45 39 3 -76 c2 -42 0 -79 -3 -82z m617 35 c-9
-11 -29 -28 -44 -39 l-28 -19 0 82 0 83 45 -44 c43 -42 44 -45 27 -63z m-597
-188 c7 -41 14 -81 16 -89 3 -12 -10 -16 -71 -18 -90 -4 -142 10 -169 45 -39
48 -23 121 45 215 l37 50 64 -65 c63 -62 65 -66 78 -138z m679 120 c107 -161
55 -271 -121 -256 -35 2 -66 7 -69 10 -3 2 4 46 14 96 l18 92 60 49 c32 27 62
50 65 50 4 0 19 -18 33 -41z m-504 -179 c0 -8 -69 -30 -92 -30 -10 0 -20 16
-27 44 -19 77 -17 79 54 34 36 -23 65 -45 65 -48z m287 58 c-3 -13 -9 -40 -13
-61 -3 -21 -12 -41 -19 -43 -6 -3 -38 5 -69 17 l-58 21 74 43 c86 51 92 52 85
23z m-179 -107 c20 -10 55 -24 77 -31 22 -7 44 -16 48 -20 12 -11 -36 -102
-73 -139 -77 -76 -159 -41 -226 96 -23 46 -25 58 -14 62 8 3 42 15 75 27 77
27 70 27 113 5z"/>
<path d="M3772 3877 c-22 -23 -29 -68 -16 -102 8 -19 55 -45 84 -45 33 0 80
53 80 90 0 71 -99 109 -148 57z"/>
<path d="M7765 3325 c-41 -40 -26 -104 28 -126 36 -15 73 1 96 42 27 48 -18
109 -80 109 -11 0 -31 -11 -44 -25z"/>
<path d="M1215 3265 c-43 -42 -28 -103 29 -125 57 -21 117 39 96 96 -22 57
-83 72 -125 29z"/>
<path d="M7593 3070 c-47 -19 -57 -87 -18 -125 30 -30 64 -32 99 -4 67 53 -1
162 -81 129z"/>
<path d="M1400 2990 c-12 -12 -20 -33 -20 -55 0 -45 29 -75 73 -75 68 0 103
83 54 128 -30 28 -80 29 -107 2z"/>
<path d="M7360 2763 c-59 -76 47 -167 115 -98 30 30 32 64 4 99 -29 37 -89 37
-119 -1z"/>
<path d="M1625 2720 c-75 -30 -53 -150 27 -150 38 0 78 40 78 78 0 27 -31 72
-50 72 -4 0 -14 2 -22 4 -7 3 -22 1 -33 -4z"/>
<path d="M6816 2610 c-28 -9 -66 -37 -66 -50 0 -4 14 -11 32 -16 27 -8 35 -6
54 13 19 19 34 23 76 22 113 -2 113 -3 -3 -111 -229 -211 -562 -430 -879 -578
-175 -81 -320 -135 -320 -119 0 4 -39 27 -86 51 -87 43 -176 60 -238 44 -40
-10 -85 -54 -92 -90 -6 -37 16 -93 42 -103 25 -9 15 -21 -23 -27 -75 -14 -77
-15 -46 -39 16 -13 42 -22 62 -22 l35 0 32 -133 c17 -73 35 -137 40 -141 5 -5
24 -13 42 -19 30 -10 32 -10 27 11 -77 306 -78 316 -35 317 9 0 70 18 135 40
65 22 124 40 131 40 7 0 19 -20 27 -45 9 -25 15 -45 14 -45 -1 0 -24 7 -50 15
-57 17 -98 11 -131 -20 -77 -71 -20 -173 100 -183 52 -4 56 -3 88 31 l33 35
14 -31 c10 -22 24 -34 48 -40 18 -4 35 -6 37 -4 3 2 -18 70 -47 151 -28 80
-49 151 -47 157 2 5 30 21 62 34 l58 23 24 -54 c28 -65 28 -63 8 -85 -15 -17
-14 -19 17 -38 38 -23 92 -36 108 -26 8 4 8 12 0 26 -13 25 -12 26 49 54 l49
23 21 -44 c17 -35 27 -44 47 -44 25 0 25 0 9 -26 -18 -27 -12 -40 21 -46 14
-2 24 5 32 25 17 39 57 35 61 -6 5 -42 -51 -93 -111 -102 -41 -6 -63 -4 -136
16 -7 2 -15 -1 -18 -7 -6 -18 84 -44 154 -44 69 0 93 8 136 48 27 26 35 68 21
107 -9 21 -56 45 -92 45 -27 0 -32 8 -95 143 -50 105 -64 144 -54 150 6 4 65
39 130 77 l117 69 25 -39 c14 -22 25 -42 25 -45 0 -4 -20 -3 -45 1 -42 6 -47
4 -80 -29 -77 -77 -23 -167 101 -167 44 0 52 5 87 54 14 19 15 19 26 -2 9 -17
21 -22 51 -22 22 0 40 2 40 5 0 3 -13 27 -30 53 -35 58 -37 80 -10 115 19 24
19 26 3 56 -10 17 -21 31 -25 31 -4 0 -17 -14 -30 -30 l-22 -30 -27 42 -27 43
32 20 c17 11 65 45 106 76 99 73 99 73 115 59 24 -20 17 -33 -36 -73 -27 -21
-54 -50 -60 -65 -22 -57 41 -121 149 -153 37 -11 45 -10 52 1 7 11 -1 17 -32
27 -50 14 -98 59 -98 90 0 21 63 93 80 93 3 0 28 -31 56 -68 51 -67 52 -68 93
-64 29 3 39 8 33 16 -5 6 -51 67 -102 135 -84 113 -91 125 -74 134 10 6 40 30
65 54 50 47 75 49 85 6 5 -17 0 -34 -16 -55 -12 -16 -20 -31 -18 -33 18 -15
78 -37 117 -42 63 -7 107 15 130 68 l18 39 22 -24 c19 -20 30 -23 60 -19 20 3
38 7 40 9 2 2 -47 58 -109 124 l-113 121 22 23 c28 29 27 32 -11 40 -21 4 -37
1 -47 -9 -15 -12 -28 -12 -106 0 -101 17 -99 17 -139 5z m274 -155 c35 -36 44
-52 41 -73 -7 -59 -51 -112 -93 -112 -34 0 -34 2 -7 57 25 51 18 65 -38 84
l-35 11 38 39 c21 21 41 39 44 39 3 0 26 -20 50 -45z m-592 -541 c12 -4 22
-11 22 -16 0 -23 -35 -81 -57 -95 -22 -14 -25 -14 -43 2 -33 30 -20 87 23 105
28 11 27 11 55 4z m-357 -111 c13 -32 25 -60 27 -64 2 -5 -88 -49 -102 -49 -7
0 -41 66 -50 97 -6 19 0 26 41 47 26 14 51 25 54 26 3 0 16 -26 30 -57z m-497
-20 l51 -26 -112 -37 c-61 -21 -129 -41 -151 -45 -38 -6 -42 -5 -57 24 -57
111 113 163 269 84z m139 -213 c23 -20 -67 -110 -110 -110 -30 0 -63 26 -63
49 0 28 29 60 63 69 34 10 96 5 110 -8z"/>
<path d="M2085 2478 c-7 -29 -4 -36 29 -64 20 -17 36 -34 36 -38 0 -13 -55
-76 -66 -76 -7 0 -14 7 -18 15 -3 8 -15 15 -26 15 -31 0 -41 -41 -39 -167 1
-105 3 -113 21 -113 18 0 19 5 13 75 l-7 75 25 0 c14 0 32 3 41 6 11 4 16 0
16 -13 0 -30 22 -52 63 -67 l37 -12 -36 -47 c-36 -46 -37 -49 -25 -88 l12 -40
106 131 c102 126 107 130 127 115 11 -8 36 -22 54 -31 17 -9 32 -18 32 -20 0
-3 -36 -58 -80 -124 -44 -66 -80 -121 -80 -123 0 -3 7 -21 16 -42 l15 -38 95
142 c62 93 99 139 107 135 7 -4 20 -14 30 -22 16 -14 17 -12 17 25 0 39 -2 41
-87 98 -70 46 -313 234 -405 312 -14 13 -17 11 -23 -19z m183 -189 l51 -42
-27 -33 c-24 -30 -33 -34 -73 -34 -35 0 -51 5 -68 24 l-23 25 38 50 c22 28 42
50 45 51 4 0 29 -19 57 -41z"/>
<path d="M3035 2073 c-11 -3 -33 -17 -48 -31 -24 -23 -28 -33 -25 -69 2 -24 0
-43 -5 -43 -4 0 -26 9 -48 21 -23 11 -43 18 -46 16 -2 -3 -1 -20 2 -39 5 -26
14 -37 36 -45 l29 -11 -44 -94 c-24 -51 -51 -110 -61 -130 -18 -36 -18 -40 -2
-74 10 -19 21 -33 25 -30 5 3 40 70 77 150 l69 145 35 -19 c20 -11 85 -38 146
-61 60 -22 113 -43 117 -45 7 -5 -23 -94 -32 -94 -3 0 -12 15 -21 33 -9 17
-31 42 -49 55 -44 30 -91 29 -129 -4 -25 -21 -31 -33 -31 -65 0 -92 65 -156
146 -145 l43 5 -11 -29 c-8 -25 -6 -36 12 -65 12 -19 23 -35 24 -35 1 0 29 70
61 156 53 140 61 155 79 150 12 -2 53 -14 91 -25 39 -10 82 -22 98 -25 15 -4
27 -13 27 -21 0 -18 -8 -18 -66 -4 -65 17 -94 2 -94 -49 0 -20 7 -47 15 -59
13 -18 13 -22 0 -33 -35 -29 -3 -113 56 -149 31 -19 32 -19 87 0 67 23 72 23
72 2 0 -9 12 -30 27 -46 l28 -28 41 163 c25 99 45 162 52 161 7 -2 33 -5 59
-9 26 -3 49 -7 51 -9 3 -2 -5 -68 -17 -146 l-22 -143 28 -23 c15 -12 30 -22
33 -23 3 0 14 59 24 131 29 202 26 195 64 191 36 -4 37 -2 18 36 -13 26 -22
29 -108 41 -104 15 -487 104 -533 125 -16 8 -47 19 -67 27 -29 10 -38 19 -42
43 -16 85 -105 220 -165 250 -33 17 -80 25 -106 19z m127 -99 c39 -25 90 -91
114 -149 8 -19 14 -36 14 -39 0 -6 -200 71 -248 96 -39 21 -42 25 -36 53 16
76 75 91 156 39z m50 -351 c21 -20 38 -40 38 -45 0 -10 -68 -28 -106 -28 -68
0 -109 71 -61 105 34 25 84 12 129 -32z m501 -32 l25 -10 -23 -93 c-26 -101
-40 -120 -103 -139 -44 -12 -108 5 -126 34 -22 37 47 59 105 33 13 -6 15 -1
11 24 -5 36 -10 39 -72 43 -41 3 -45 6 -48 30 -3 25 0 27 31 27 18 0 55 -6 80
-14 26 -8 49 -11 51 -7 2 3 7 23 11 44 8 39 17 43 58 28z"/>
<path d="M4785 1570 c-33 -4 -144 -8 -247 -9 -104 -1 -188 -4 -188 -8 0 -5 8
-18 18 -30 13 -17 29 -23 72 -25 51 -3 55 -5 58 -30 4 -30 -28 -58 -65 -58
-13 0 -23 -2 -23 -5 0 -21 48 -100 76 -125 47 -41 76 -46 124 -22 l40 19 0
-33 c0 -25 7 -38 29 -53 16 -12 33 -21 38 -21 4 0 7 74 5 164 l-3 163 62 7
c33 4 63 6 65 4 2 -2 9 -66 15 -142 l13 -138 35 -24 c19 -13 36 -22 38 -20 2
2 -3 72 -12 156 -19 195 -20 180 15 180 34 0 39 18 12 43 -20 18 -69 20 -177
7z m-137 -142 l-3 -72 -40 -23 c-47 -27 -82 -29 -113 -7 -31 22 -28 29 24 49
25 9 48 23 51 31 3 8 -4 30 -16 49 -12 20 -21 38 -21 41 0 2 27 4 60 4 l61 0
-3 -72z"/>
</g>
</svg>
